#!OML:ASF F:\VICON\USERDATA\INSTALL\rory3\rory3.ASF
:FULLY-SPECIFIED
:DEGREES
19
root 0.8463983209532353 17.913098120183992 -4.4010109267884925 -4.044089997249186 -1.0021740842841003 2.3573192000098953
lfemur 0.11127560160140959 -4.089152935823826 -28.40148761916369
ltibia 25.658903321889227
lfoot -17.17998761327571 1.2625045846696077
ltoes 6.189166747311175
rfemur -30.56248762740602 -1.720793302200137 19.07720982771423
rtibia 56.2653907639026
rfoot -10.7770975394865 -9.778443491041122
rtoes -2.3390621649557826
lowerback 11.680485627034026 -0.26079502600388754 -2.241361644886779
upperback 0.545259274620042 -0.597691535183233 0.7494558920769818
thorax -5.953631505418078 -0.22203808735669872 2.1521832881531218
lowerneck -16.137002271674252 -2.751196285078121 -1.509556920721485
upperneck 22.34738792823677 -3.2158094668765704 -0.9678538262856211
head 9.759249739827716 -1.735014829725969 -0.5050681063954411
lclavicle -4.533851499001848e-16 -7.764982017229942e-16
lhumerus -26.301807227461747 0.30617344334105656 81.0390928484179
lradius 26.75899579888305
lwrist 5.63477892746222
lhand -28.14730092774284 16.84630716352252
lfingers 7.12502
lthumb -1.5281309188310903 46.8206069198239
rclavicle -4.533851499001848e-16 -7.764982017229942e-16
rhumerus -30.7354960243083 -23.162293290639198 -77.13480321962425
rradius 24.423504648601945
rwrist 5.42080709630476
rhand -17.70510144704442 24.621290645444187
rfingers 7.12502
rthumb 8.554898534443188 -5.18538948581962
20
root 0.7923675799701786 17.92259743744692 -3.696630600821715 -3.416144067408406 -0.492401785085852 2.7854981293614482
lfemur 3.997251184461147 -3.3273351703560348 -28.620987068471763
ltibia 21.374806168274052
lfoot -17.550987701547925 -0.13040761553764213
ltoes 2.4839722006419875
rfemur -31.21258729300748 -0.5718360480955771 18.460610441635854
rtibia 44.20809692606627
rfoot -8.286160029530228 -10.984991457493614
rtoes -5.40910743056839
lowerback 11.26958914545841 -0.5300272171290894 -3.0926397053280263
upperback 0.5493901712211158 -1.0473826842282472 0.8836971700674892
thorax -5.677745515037932 -0.4234642364766087 2.8401704438569793
lowerneck -16.998687037194852 -2.692578066175283 -1.7603530622154213
upperneck 22.402087290876835 -3.141610780535122 -0.5864645567261155
head 9.952333080018489 -1.6755975392412936 -0.33511802426365755
lclavicle -4.533851309123039e-16 -7.764981973281276e-16
lhumerus -24.08721032453516 -0.531999324310811 80.85319372555888
lradius 28.693091945727634
lwrist 7.747152889899955
lhand -21.590230406679805 46.071850160181725
lfingers 7.12502
lthumb 4.804479488245107 75.99735149480829
rclavicle -4.533851309123039e-16 -7.764981973281276e-16
rhumerus -31.68489451182756 -23.10029319481722 -76.5942044258484
rradius 24.566404276525702
rwrist 5.088287826844767
rhand -17.4904030585007 24.1430924615471
rfingers 7.12502
rthumb 8.762096918555866 -5.6549975984206995
21
root 0.6517857205647957 18.026883053667376 0.40014732506467254 -2.1358059770529945 0.7107240906212664 1.6579167027989659
lfemur 7.787658811376486 -2.5743512281532173 -27.632368549010547
ltibia 17.469093001414134
lfoot -17.75447011666007 0.40605902267857363
ltoes 2.090188787289135
rfemur -27.220632663498954 2.812731736307193 18.09176579333316
rtibia 31.736871748788765
rfoot -7.402486556440001 -13.627539774644159
rtoes -2.812319232277887
lowerback 9.703877969949655 -0.80059983997982 -3.7392760339963296
upperback 0.62854222086677 -1.4972759324025853 0.49222400914482023
thorax -4.902154830060485 -0.71514265607547 2.591855531336674
lowerneck -16.146069492155778 -2.776267371992727 -1.894895090867191
upperneck 21.555534426742284 -3.5165534946183774 -0.778694572401853
head 9.503018904308464 -1.8164383037115186 -0.3951175138034346
lclavicle -4.53286049750798e-16 -7.764216012618848e-16
lhumerus -23.685164023051104 -2.474610124839902 80.35886231531185
lradius 30.04811344252935
lwrist 7.734167821554204
lhand -27.541857124557943 23.831486779476922
lfingers 7.12502
lthumb -1.1576500808638628 53.32768131643402
rclavicle -4.541504959231534e-16 -7.770897309935221e-16
rhumerus -30.76519436620953 -24.147966785663023 -76.18090537067397
rradius 25.22175156973221
rwrist 4.64507652467164
rhand -17.708339676010137 23.529161197082633
rfingers 7.12502
rthumb 8.50612075709041 -6.442903202464276
22
root 0.5812850546322024 18.001002168298523 1.129561036016307 -1.3482713680357046 1.6350524270372535 1.902246390109927
lfemur 11.059383570912134 -2.8326454027576573 -27.78498969502839
ltibia 13.252129481835198
lfoot -17.510152059549352 0.02410530457912685
ltoes 0.6445775631273696
rfemur -26.595917392523855 6.819163009512192 15.018945509206437
rtibia 20.420145026713456
rfoot -9.63011134007705 -16.957180307833948
rtoes 0.7524067616431056
lowerback 9.245219119145242 -1.0008460573354248 -4.242297734972973
upperback 0.5493794773133803 -1.7141914365388502 0.6427796972292776
thorax -4.683109707441923 -0.8784340343070584 2.9638789456247734
lowerneck -16.191854663366104 -2.8404251924824093 -1.9047331190874657
upperneck 21.443244395847547 -3.796847188340853 -0.5214733204354918
head 9.503164092570302 -1.9243529963402912 -0.3637526954474514
lclavicle -4.532860710726341e-16 -7.764216177415143e-16
lhumerus -22.596073713313324 -2.881308357748468 80.08366391298414
lradius 31.270447319160596
lwrist 8.226030496605988
lhand -26.719812549062425 27.181647422344792
lfingers 7.12502
lthumb -0.18518129302154307 56.95989957861994
rclavicle -4.54151063299884e-16 -7.770901695185279e-16
rhumerus -31.700821087097076 -25.17749281838146 -75.3705588289972
rradius 25.41182763168014
rwrist 4.615807327742553
rhand -17.953368363790464 23.200460999205593
rfingers 7.12502
rthumb 8.198964743915683 -6.851594593206767
23
root 0.511527334957527 17.961418070838395 2.01825093734943 -0.8139312657498239 2.396871483979876 2.1749618883014863
lfemur 13.596594723977192 -4.038653570444028 -27.72085060339811
ltibia 11.351454866898855
lfoot -17.012093067152044 -0.5115701004837998
ltoes -1.7910632017781214
rfemur -25.710597608765415 7.872574547809405 14.401939403659451
rtibia 14.890895687695181
rfoot -11.090442128025385 -16.435309969299176
rtoes 4.149085428539086
lowerback 9.162779526203906 -1.0417165705859752 -4.295665080643542
upperback 0.49439007246818123 -1.8943662135116888 0.7351869623090406
thorax -4.5187549150401285 -0.9771609236935194 3.1076509654452353
lowerneck -16.18887720740957 -2.9104604251050334 -1.8429479363573151
upperneck 21.41086835979315 -4.052645966148535 -0.32580723785987575
head 9.499728143053957 -2.0003256159013687 -0.34076227557431604
lclavicle -4.532860517969534e-16 -7.764216028433566e-16
lhumerus -21.949525737766358 -2.6923606940266467 79.76796628301243
lradius 32.002287709553
lwrist 8.830173579083528
lhand -28.10276154443468 22.651674084170136
lfingers 7.12502
lthumb -1.3305305588042267 53.152785183280514
rclavicle -4.541511304576895e-16 -7.770902214247403e-16
rhumerus -32.51651098484475 -26.23388566141546 -74.66127615444876
rradius 25.160862334186902
rwrist 4.694487172240098
rhand -18.410295469173633 22.451817660341252
rfingers 7.12502
rthumb 7.877947624743167 -7.387698034893729
24
root 0.4348660553239695 17.917214739445896 2.805729488555073 -0.627857229977292 2.6978213169455985 2.206473844729226
lfemur 14.838791342476226 -5.547840501919019 -27.28027190472556
ltibia 13.04560329964276
lfoot -16.054765728463348 -1.2866330825693557
ltoes -3.863238188052578
rfemur -26.38485325441591 3.941040298640398 17.296006832321602
rtibia 17.900059150581583
rfoot -9.20720311117122 -12.030335110356688
rtoes 5.518471492287775
lowerback 9.241130523554574 -1.0655657009172135 -4.172306567847349
upperback 0.4366588963220184 -1.9372875212760106 0.8607635213257901
thorax -4.466432203964253 -1.0080932909254128 3.1749956384161955
lowerneck -16.347324426823743 -2.995778252763561 -1.8839713218349725
upperneck 21.420068548004924 -4.2285682235738244 -0.14519341453780787
head 9.529334260076613 -2.0359026898584043 -0.27243943391720743
lclavicle -4.53285448777875e-16 -7.764211367704098e-16
lhumerus -21.445415864704614 -1.9029286176727869 79.67543015756046
lradius 32.23900524876344
lwrist 9.226669336769692
lhand -28.826892068253724 21.83432092820085
lfingers 7.12502
lthumb -1.918705169020437 52.415030151459106
rclavicle -4.541509726862891e-16 -7.770900994833555e-16
rhumerus -33.22783803518876 -27.09255331250373 -74.10477324548725
rradius 24.52824110693563
rwrist 4.85365746562721
rhand -18.41938358162668 22.695138074152656
rfingers 7.12502
rthumb 7.964525438077706 -7.015369388593293
25
root 0.36857680244784696 17.90119147270932 3.9810421958151494 -0.6801239957331928 2.6619185908131864 1.8496169089458134
lfemur 15.160206984288175 -7.131025356327749 -26.418774855376043
ltibia 15.621516118113481
lfoot -14.418035611516054 -2.783382636207734
ltoes -4.612277808351029
rfemur -25.743316617152846 3.428806518708786 19.529784935088767
rtibia 23.059439982025285
rfoot -7.189824258803314 -9.725821620380085
rtoes 5.556063224582482
lowerback 9.215297814726267 -0.9880605895110728 -3.5161789229828564
upperback 0.3570062028243056 -2.0074630132086035 1.0352712250580463
thorax -4.421561615418053 -0.9632409614687395 3.1657163943568305
lowerneck -16.495411931344535 -3.0179860969198056 -1.948793257879676
upperneck 21.445425948466465 -4.367862299469665 -0.04454021155968324
head 9.571363807027334 -2.049848177526902 -0.2390051697778829
lclavicle -4.532846061572375e-16 -7.76420485509616e-16
lhumerus -21.4388800246365 -1.1414498673416116 79.86065099105814
lradius 31.974459693369276
lwrist 9.40883400002074
lhand -28.336781840378645 22.57589058987892
lfingers 7.12502
lthumb -1.1680774272441823 53.91831366191704
rclavicle -4.54151050800334e-16 -7.770901598576363e-16
rhumerus -34.142193876068305 -28.11333387703842 -73.34541300689484
rradius 23.704675595748803
rwrist 5.382849869204348
rhand -18.555046241461135 22.975691237628613
rfingers 7.12502
rthumb 7.7839258730520005 -6.733784140322124
26
root 0.31379905407270686 17.91988952670085 5.054877419754362 -0.8357978455730504 2.444545558847105 1.0884385346327359
lfemur 13.851828659008865 -8.045787421391495 -24.868412965346867
ltibia 19.603183157711754
lfoot -11.41217318295691 -4.582616696477677
ltoes -5.622064005779361
rfemur -25.38372416800827 3.831245852070186 21.111792404492906
rtibia 26.434323185609962
rfoot -4.473440898824711 -6.023254948041007
rtoes 5.874964250851716
lowerback 8.99557584954768 -0.9215021074812513 -2.6339216327829345
upperback 0.31382272358634467 -1.9079719863086921 1.2964800785855755
thorax -4.39651054382102 -0.8945113312223344 2.9741183002689953
lowerneck -16.50856074809354 -2.967428840591393 -2.0748991017037337
upperneck 21.568944110239848 -4.341778942447216 0.06655297420606943
head 9.595647471628016 -2.0297488263154397 -0.21939264017475307
lclavicle -4.53285601106984e-16 -7.764212545054521e-16
lhumerus -22.115856476550064 -0.3961351028130089 80.21299784413173
lradius 31.37211675506882
lwrist 9.288603901093325
lhand -27.676898964554912 24.67528979539008
lfingers 7.12502
lthumb -1.1130977298664608 54.43322478367306
rclavicle -4.541506316434579e-16 -7.770898358916334e-16
rhumerus -35.14749604295679 -29.427808272257355 -72.17808077259595
rradius 22.863178806197816
rwrist 6.030835734224846
rhand -18.67790497244232 22.85697721883622
rfingers 7.12502
rthumb 7.686854844321145 -6.813307476375014
